Coordinates
version=1
nRows=49
nColumns=12
inDegrees=yes

Units are S.I. units (second, meters, Newtons, ...)
Angles are in degrees

endheader
time	SC_y	SC_z	SC_x	AC_y	AC_z	AC_x	GH_y	GH_z	GH_yy	EL_x	PS_y
       0.0              -54.14          35.14           75.3          47.58         -4.579          16.75           15.1          61.53         -136.1          94.29          156.4
   0.03556              -54.13          35.14           75.3          47.58         -4.577          16.75          15.11          61.53         -136.1          94.28          156.3
   0.07112              -54.13          35.14          75.29          47.58         -4.575          16.74          15.11          61.54         -136.0          94.27          156.3
    0.1067              -54.13          35.14          75.29          47.59         -4.573          16.74          15.11          61.54         -136.0          94.26          156.3
    0.1422              -54.13          35.14          75.29          47.59         -4.571          16.74          15.12          61.54         -136.0          94.25          156.3
    0.1778              -54.13          35.14          75.28          47.59         -4.569          16.74          15.12          61.55         -136.0          94.24          156.3
    0.2134              -54.12          35.14          75.28           47.6         -4.566          16.74          15.13          61.55         -136.0          94.23          156.3
    0.2489              -54.12          35.14          75.27           47.6         -4.563          16.73          15.13          61.56         -135.9          94.22          156.2
    0.2845              -54.12          35.14          75.27          47.61         -4.561          16.73          15.14          61.56         -135.9           94.2          156.2
      0.32              -54.11          35.14          75.26          47.61         -4.557          16.73          15.14          61.57         -135.9          94.19          156.2
    0.3556              -54.11          35.14          75.26          47.62         -4.554          16.72          15.15          61.58         -135.8          94.17          156.2
    0.3911              -54.11          35.14          75.25          47.62          -4.55          16.72          15.16          61.58         -135.8          94.16          156.1
    0.4267               -54.1          35.14          75.24          47.63         -4.547          16.72          15.17          61.59         -135.8          94.14          156.1
    0.4623               -54.1          35.14          75.23          47.64         -4.542          16.71          15.17           61.6         -135.7          94.12          156.1
    0.4978              -54.09          35.14          75.23          47.65         -4.538          16.71          15.18          61.61         -135.7           94.1          156.1
    0.5334              -54.09          35.14          75.22          47.65         -4.533           16.7          15.19          61.62         -135.7          94.08          156.0
    0.5689              -54.08          35.15          75.21          47.66         -4.527           16.7           15.2          61.63         -135.6          94.05          156.0
    0.6045              -54.07          35.15           75.2          47.67         -4.522          16.69          15.21          61.64         -135.6          94.03          155.9
    0.6401              -54.07          35.15          75.19          47.68         -4.515          16.68          15.23          61.65         -135.5           94.0          155.9
    0.6756              -54.06          35.15          75.17          47.69         -4.508          16.68          15.24          61.66         -135.4          93.97          155.8
    0.7112              -54.05          35.15          75.16          47.71         -4.501          16.67          15.25          61.68         -135.4          93.93          155.8
    0.7467              -54.04          35.15          75.14          47.72         -4.492          16.66          15.27          61.69         -135.3          93.89          155.7
    0.7823              -54.03          35.15          75.13          47.74         -4.483          16.65          15.29          61.71         -135.2          93.85          155.7
    0.8179              -54.02          35.15          75.11          47.75         -4.472          16.64          15.31          61.73         -135.1          93.81          155.6
    0.8534              -54.01          35.15          75.09          47.77         -4.461          16.63          15.33          61.75         -135.0          93.75          155.5
     0.889               -54.0          35.16          75.07          47.79         -4.448          16.62          15.36          61.78         -134.9           93.7          155.4
    0.9245              -53.98          35.16          75.04          47.82         -4.434           16.6          15.38           61.8         -134.8          93.63          155.3
    0.9601              -53.96          35.16          75.01          47.84         -4.418          16.59          15.41          61.83         -134.6          93.56          155.2
    0.9956              -53.94          35.16          74.98          47.87         -4.399          16.57          15.45          61.87         -134.4          93.48          155.1
     1.031              -53.92          35.17          74.94          47.91         -4.379          16.55          15.49          61.91         -134.3          93.38          154.9
     1.067               -53.9          35.17           74.9          47.94         -4.355          16.52          15.54          61.95         -134.0          93.28          154.7
     1.102              -53.87          35.17          74.85          47.99         -4.328           16.5          15.59           62.0         -133.8          93.15          154.5
     1.138              -53.83          35.18          74.79          48.04         -4.296          16.47          15.65          62.06         -133.5          93.01          154.3
     1.173              -53.79          35.18          74.73           48.1          -4.26          16.43          15.72          62.13         -133.2          92.85          154.0
     1.209              -53.75          35.19          74.65          48.17         -4.217          16.39           15.8          62.21         -132.8          92.65          153.7
     1.245               -53.7          35.19          74.56          48.25         -4.167          16.34           15.9           62.3         -132.3          92.43          153.4
      1.28              -53.63           35.2          74.46          48.35         -4.107          16.28          16.01          62.42         -131.8          92.16          152.9
     1.316              -53.55          35.21          74.33          48.47         -4.036          16.21          16.15          62.55         -131.1          91.84          152.4
     1.351              -53.46          35.22          74.17          48.61         -3.949          16.12          16.32          62.71         -130.4          91.44          151.8
     1.387              -53.35          35.24          73.98          48.78         -3.843          16.01          16.52          62.91         -129.4          90.97          151.0
     1.422              -53.21          35.26          73.75           49.0         -3.713          15.88          16.78          63.16         -128.2          90.38          150.1
     1.458              -53.03          35.28          73.46          49.26          -3.55          15.72          17.09          63.46         -126.7          89.64          148.9
     1.493              -52.82          35.31          73.09           49.6         -3.345          15.52          17.49          63.85         -124.9          88.72          147.4
     1.529              -52.54          35.34          72.62          50.03         -3.084          15.26          17.99          64.34         -122.5          87.54          145.6
     1.565              -52.18          35.39          72.02          50.57         -2.751          14.92          18.64          64.96         -119.5          86.04          143.1
       1.6              -51.72          35.44          71.26          51.27         -2.322           14.5          19.46          65.77         -115.6           84.1          140.0
     1.636              -51.13          35.52          70.28          52.17         -1.775          13.95          20.52           66.8         -110.6          81.64          136.1
     1.671               -50.4          35.61          69.05           53.3         -1.087          13.26          21.85          68.09         -104.4          78.53          131.1
     1.707               -49.5          35.72          67.54          54.67        -0.2492          12.43          23.47          69.66         -96.79          74.75          125.1
